<svg id="Layer_1" data-name="Layer 1" xmlns="http://www.w3.org/2000/svg" viewBox="0 0 100 100"><title>Artboard 1sidra-logo.svg</title><path d="M26.23,67.69c0-6.24,0-12.48,0-18.72,0-.87.25-1.16,1.09-1.43q10.46-3.32,20.86-6.79a1.89,1.89,0,0,1,2.45.66A46.58,46.58,0,0,0,53.89,45c.53.54.52.91.06,1.5-1.28,1.67-2.48,3.4-3.71,5.1-.28.39-.6.75,0,1.2s.86-.06,1.12-.41c1.14-1.56,2.28-3.14,3.38-4.74.49-.73.85-.86,1.5-.12,2,2.29,4.09,4.54,6.16,6.79a1.88,1.88,0,0,1,.56,1.49q-.81,15.6-1.59,31.21c0,.33.09.79-.47.78s-.46-.55-.44-.89q.33-7.32.7-14.65c0-.28,0-.56,0-.84s.08-.81-.54-.83-.75.23-.77.77c-.09,2.19-.21,4.37-.31,6.56-.15,3-.32,6-.42,9,0,.7-.28.85-.92.84q-15.51,0-31,0c-1,0-1-.5-1-1.2Q26.24,77.18,26.23,67.69Z" style="fill:#1f3d37"/><path d="M48.56,39.27l-8.78,2.9c-4.12,1.34-8.26,2.64-12.36,4-1,.34-1.21.15-1.21-.87,0-9.95,0-19.89,0-29.84,0-.29-.16-.69.19-.86s.57.2.81.37l25,17.46c1.21.84,1.2.85.12,1.92-.88.87-1.8,1.7-2.62,2.62-.58.65-1,.57-1.49,0Q45.17,33.48,42,30.07c-.25-.27-.45-.88-1-.5s-.51.8,0,1.32c2.38,2.56,4.73,5.16,7.08,7.75C48.2,38.81,48.34,39,48.56,39.27Z" style="fill:#1f3d37"/><path d="M67.84,48.06c.3-2.65-.35-5.41,1.85-7.77a72.06,72.06,0,0,0,4.79-6.37c.23-.3.38-.69.86-.76a2.91,2.91,0,0,1,.12,1.4q0,25.88,0,51.76c0,1.19-.26,1.6-1.51,1.54-2.38-.11-4.77-.06-7.15,0-.84,0-1.09-.21-1-1.07.53-9.37,1-18.73,1.52-28.1.11-2,.28-4,.28-6.08a4.47,4.47,0,0,1,1.16-3c1.83-2.19,3.63-4.42,5.44-6.63a4.21,4.21,0,0,1,.35-.48c.4-.38.27-.67-.09-1s-.64-.13-.88.17L69.14,47c-.33.39-.65.78-1,1.18Z" style="fill:#1f3d37"/><path d="M50.93,12.15c7.72,0,15.43,0,23.15,0,1,0,1.42.2,1.41,1.35-.08,5.45,0,10.9,0,16.35a1.86,1.86,0,0,1-.81,1.9,12,12,0,0,0-2.36,3c-1.38,1.84-2.78,3.67-4.1,5.56-.57.81-1,.81-1.6.07-1-1.14-2-2.24-3.09-3.31a.86.86,0,0,1-.1-1.33c1-1.33,1.95-2.7,2.93-4.05.26-.36.58-.67,0-1.09s-.84,0-1.12.36c-.88,1.22-1.78,2.43-2.63,3.68-.46.66-.81.7-1.35.06a31.72,31.72,0,0,0-2.68-2.88c-.73-.67-.6-1.08,0-1.71,4.45-4.33,8.86-8.69,13.28-13l2.37-2.36c.29-.3.71-.54.22-1.06s-.8-.2-1.15.15c-5.13,5-10.29,10.07-15.37,15.17-.87.88-1.28.84-2.09,0-4.59-5-9.24-10-13.87-15-.28-.29-.57-.56-.84-.85s-.57-.51-1-.13-.24.72.09,1.08q2.65,2.82,5.29,5.66,4.77,5.11,9.51,10.23c.37.4,1.17.76.35,1.52-.61.56-1,1-2,.34Q40.92,22.88,28.29,14.12a4,4,0,0,0-1.63-.95c-.37-.05-.46-.28-.43-.58s.31-.42.6-.43h24.1Z" style="fill:#1f3d37"/><path d="M66.6,46.31a6,6,0,0,0-.06,1.19c.39,2.41-1,4-2.43,5.65-.39.47-.63.46-1,0q-3.2-3.52-6.42-7a.7.7,0,0,1-.08-1c1.69-2.31,3.35-4.63,5-7,.36-.52.67-.55,1.11-.06q1.8,2,3.65,3.93a1.45,1.45,0,0,1,.39,1.19c-.05,1-.09,2.07-.14,3.1Z" style="fill:#1f3d37"/><path d="M66.25,53.13c-.17,3.26-.35,6.51-.52,9.76q-.62,11.91-1.22,23.82c0,.6.07,1.19-.89,1.16-.77,0-1-.19-1-1,.2-3.25.33-6.51.5-9.76.36-6.91.78-13.81,1.05-20.72.07-1.56,1-2.37,1.81-3.37Z" style="fill:#223f39"/><path d="M60.83,37l-4.28,6c-1.25,1.75-1.25,1.74-2.66.17-.77-.86-1.55-1.7-2.34-2.55-.28-.3-.64-.65,0-.87,3-1,6-1.92,9-2.88C60.58,36.79,60.66,36.87,60.83,37Z" style="fill:#223f39"/><path d="M59.53,35.75l-9.23,3-.19-.3c1.63-1.33,2.78-3.17,4.69-4.19a2,2,0,0,0,.8-1c.71-1.42,1.23-1.49,2.27-.35.45.49.92,1,1.38,1.47C59.5,34.79,60.4,35.09,59.53,35.75Z" style="fill:#23403a"/><path d="M59.08,24.66c.52.87.39,1.44-.44,1.91-.29.15-.44.54-.67.8s-.7.8-1.19.61a1.2,1.2,0,0,1-.83-1.2c0-.55,0-.84-.82-.9-1.15-.1-1.3-1.43-1.9-2.21-.08-.1.13-.32-.08-.41a6.51,6.51,0,0,1-3-2.26,41.48,41.48,0,0,0-3.44-3.69c-.64-.53-.76-1,.15-1.39.31-.13,1-.2.76-.69s-.64-1.08-1.29-1.1-.65.44-.65.94c0,.85-.45.53-.83.27a.52.52,0,0,1-.14-.19c-.34-.62-1.45-1-1.2-1.61s1.3-.2,2-.22c1.82,0,3.63,0,5.45,0,.28,0,.71-.18.81.25s-.28.42-.56.46-.56.32-.43.67a.54.54,0,0,0,.77.33c.61-.2,1.48,0,1.36-1.15,0-.42.37-.56.77-.57h1.55c.71,0,1.07.21.78,1a1.93,1.93,0,0,0,0,.83c0,.2.12.41.35.38a.43.43,0,0,0,.29-.32c.06-1,.41-1.6,1.53-1.73a3.85,3.85,0,0,1,2.42.07.76.76,0,0,0,.77.06,5.68,5.68,0,0,1,4.18-.15c1,.43,1.57,0,2.38-.09a20.19,20.19,0,0,1,3.21,0c.2,0,.44,0,.47.25a.47.47,0,0,1-.19.39,6.58,6.58,0,0,0-1.86,2c-.48.67-1.53.08-1.45.48a1.18,1.18,0,0,1-.53,1.39c-1.41.95-2.09,2.7-3.76,3.36-.45.17-.34.81-.67,1.08s-.7,1.22-1.61,1c-.22-.06-.25.22-.31.41C60.86,24.57,60.29,25.14,59.08,24.66Z" style="fill:#1f3d37"/><path d="M74.12,16.71c-.06,2.24.56,4.38.09,6.48-.33,1.45.05,2.8,0,4.19-.06,1.06-.68,2.07-.26,3.18,0,.08-.08.23-.16.31-2.18,2.26-3.5,5.17-5.66,7.45-.55.58-.87.85-1.47.14a10.37,10.37,0,0,0-1-.81c-.3-.28-.46-.51.11-.76s.54-.82.17-1.35c-.66-.94-.41-1.53.72-1.71.62-.1,1.29.06,1.5-.87a3.17,3.17,0,0,0-.4-2.47c-.32-.51-1.14-.8-.45-1.66.21-.26-.32-.44-.53-.23-.61.64-1.54.6-2.21,1.1l-.29.2c-.45.31-.54-.92-1-.26-.28.4.5.69.3,1.18a12.34,12.34,0,0,1-1.43,2.33.34.34,0,0,1-.41.15.35.35,0,0,1-.2-.49c.36-1.11-.08-1.41-1.13-1.14a.62.62,0,0,1-.72-.29c-.21-.35,0-.6.21-.85a37.93,37.93,0,0,1,5.27-5.1c.38-.27.53-.69.84-1s.72-1.18,1,.08c.15.62.62.35.83-.05a2.79,2.79,0,0,0,.26-1c.12-1.3.9-2.07,2.1-1.91a.81.81,0,0,0,.89-.37.57.57,0,0,0-.15-.84c-.56-.46-.07-.77.19-1A15,15,0,0,1,74.12,16.71Z" style="fill:#1f3d37"/></svg>